<svg width="32" height="32" viewBox="0 0 32 32" fill="none" xmlns="http://www.w3.org/2000/svg">
<rect width="32" height="32" fill="white"/>
<mask id="mask0_1803_369" style="mask-type:luminance" maskUnits="userSpaceOnUse" x="1" y="1" width="31" height="25">
<path fill-rule="evenodd" clip-rule="evenodd" d="M1.18518 1.18555H31.1515V25.481H1.18518V1.18555Z" fill="white"/>
</mask>
<g mask="url(#mask0_1803_369)">
<path fill-rule="evenodd" clip-rule="evenodd" d="M4.69404 24.5786C3.80356 22.6601 3.30617 20.5197 3.30617 18.2623C3.30617 10.01 9.95339 3.32016 18.1532 3.32016C22.719 3.32016 26.8032 5.39444 29.5267 8.65757L31.1515 7.28549C28.039 3.55617 23.3712 1.18555 18.1532 1.18555C8.78201 1.18555 1.18518 8.83108 1.18518 18.2623C1.18518 20.8421 1.75361 23.2883 2.77131 25.481L4.69404 24.5786Z" fill="black"/>
</g>
<path fill-rule="evenodd" clip-rule="evenodd" d="M18.1533 28.4015C12.5891 28.4015 8.07854 23.862 8.07854 18.2622C8.07854 12.6624 12.5891 8.12287 18.1533 8.12287C21.2515 8.12287 24.0225 9.53079 25.8706 11.7451L27.4958 10.3726C25.2587 7.69218 21.9037 5.98828 18.1533 5.98828C11.4177 5.98828 5.95752 11.4835 5.95752 18.2622C5.95752 25.0409 11.4177 30.5361 18.1533 30.5361V28.4015Z" fill="black"/>
<path fill-rule="evenodd" clip-rule="evenodd" d="M21.8087 21.349C20.9333 22.3978 19.6207 23.0647 18.1531 23.0647C15.5175 23.0647 13.3809 20.9144 13.3809 18.2619C13.3809 15.6094 15.5175 13.459 18.1531 13.459C19.6207 13.459 20.9333 14.126 21.8087 15.1748L23.6365 13.6313C22.3234 12.058 20.3545 11.0576 18.1531 11.0576C14.1997 11.0576 10.9948 14.2831 10.9948 18.2619C10.9948 22.2407 14.1997 25.4662 18.1531 25.4662C20.1706 25.4662 21.9924 24.6256 23.2935 23.2742L21.8087 21.349Z" fill="black"/>
</svg>
