<?xml version="1.0" encoding="utf-8"?>
<!-- Generator: Adobe Illustrator 27.0.1, SVG Export Plug-In . SVG Version: 6.00 Build 0)  -->
<svg version="1.1" id="Layer_1" xmlns="http://www.w3.org/2000/svg" xmlns:xlink="http://www.w3.org/1999/xlink" x="0px" y="0px"
	 viewBox="0 0 32 32" style="enable-background:new 0 0 32 32;" xml:space="preserve">
<style type="text/css">
	.st0{fill:#D73D80;}
</style>
<path class="st0" d="M10.4,9H6.6C6,9,6,9.5,6.1,9.7c0.1,0.2,3.7,5.5,3.7,5.6c0,0.1,0.4,0.6,0.4,1c0,0.4-0.1,5.2-0.1,6.4
	c0,0.3,0.4,0.5,0.8,0c0.6-0.6,5.3-5.6,5.5-5.7c0.2-0.2,0.4-0.2,0.6,0c0.2,0.2,3.5,5,3.8,5.5c0.3,0.4,0.5,0.4,0.7,0.4h3.8
	c0.4,0,0.7-0.3,0.5-0.7c-0.2-0.4-3.8-5.4-4-5.7c-0.2-0.4-0.3-0.4-0.6-0.4H18c-0.4,0-0.4-0.3-0.3-0.4c0.3-0.3,5.2-5.6,5.5-5.9
	C23.6,9.5,23.4,9,22.9,9h-5c-0.4,0-0.6,0.1-0.8,0.2c-0.1,0.1-5.9,6.3-6.1,6.4c-0.1,0.1-0.2,0.1-0.2-0.1V9.5C10.8,9.3,10.7,9,10.4,9z
	"/>
</svg>
