<svg width="33" height="32" viewBox="0 0 33 32" fill="none" xmlns="http://www.w3.org/2000/svg">
<g clip-path="url(#clip0_1_7684)">
<mask id="mask0_1_7684" style="mask-type:luminance" maskUnits="userSpaceOnUse" x="0" y="0" width="33" height="32">
<path d="M16.5 0C25.332 0 32.5 7.168 32.5 16C32.5 24.832 25.332 32 16.5 32C7.668 32 0.5 24.832 0.5 16C0.5 7.168 7.668 0 16.5 0Z" fill="white"/>
</mask>
<g mask="url(#mask0_1_7684)">
<path d="M0.5 0L32.5 32M32.5 0L0.5 32" stroke="black" stroke-miterlimit="22.9256"/>
</g>
<path d="M16.5 0C25.332 0 32.5 7.168 32.5 16C32.5 24.832 25.332 32 16.5 32C7.668 32 0.5 24.832 0.5 16C0.5 7.168 7.668 0 16.5 0Z" fill="url(#paint0_linear_1_7684)"/>
<mask id="mask1_1_7684" style="mask-type:luminance" maskUnits="userSpaceOnUse" x="7" y="14" width="19" height="15">
<path d="M16.4871 18.8416L9.35755 14.7712L9.16555 15.0656C6.97675 18.432 7.46315 22.8352 10.3431 25.664C13.7351 28.992 19.2391 28.992 22.6311 25.664C25.5111 22.8352 25.9975 18.432 23.8087 15.0656L23.6167 14.7712L16.4871 18.8416Z" fill="white"/>
</mask>
<g mask="url(#mask1_1_7684)">
<path d="M16.4871 28.4161C21.2871 28.4161 25.1783 24.5249 25.1783 19.7249C25.1783 14.9249 21.2871 11.0337 16.4871 11.0337C11.6871 11.0337 7.7959 14.9249 7.7959 19.7249C7.7959 24.5249 11.6871 28.4161 16.4871 28.4161Z" fill="url(#paint1_radial_1_7684)"/>
</g>
<path d="M16.4871 9.75354L10.3431 13.2607L16.4871 16.7679L22.6311 13.2607L16.4871 9.75354Z" fill="url(#paint2_radial_1_7684)"/>
<path d="M16.4999 10.6624L9.35754 14.7712L16.4871 18.8416L23.6039 14.7712L16.4999 10.6624Z" fill="url(#paint3_radial_1_7684)"/>
<path d="M16.4871 3.83997L10.3431 13.2608L16.4871 16.768V3.83997Z" fill="url(#paint4_linear_1_7684)"/>
<path d="M16.4872 16.768L22.6312 13.2608L16.4872 3.83997V16.768Z" fill="url(#paint5_linear_1_7684)"/>
</g>
<defs>
<linearGradient id="paint0_linear_1_7684" x1="16.5" y1="0" x2="16.5" y2="32" gradientUnits="userSpaceOnUse">
<stop stop-color="#F89791"/>
<stop offset="1" stop-color="#F7C882"/>
</linearGradient>
<radialGradient id="paint1_radial_1_7684" cx="0" cy="0" r="1" gradientUnits="userSpaceOnUse" gradientTransform="translate(16.4707 26.8386) rotate(-90.4664) scale(11.6067 13.8344)">
<stop stop-color="#C5C6AB"/>
<stop offset="1" stop-color="#7985AB"/>
</radialGradient>
<radialGradient id="paint2_radial_1_7684" cx="0" cy="0" r="1" gradientUnits="userSpaceOnUse" gradientTransform="translate(16.4871 13.2607) scale(0.3072)">
<stop stop-color="#0066FF" stop-opacity="0"/>
<stop offset="1" stop-color="#00C2FF" stop-opacity="0.4"/>
</radialGradient>
<radialGradient id="paint3_radial_1_7684" cx="0" cy="0" r="1" gradientUnits="userSpaceOnUse" gradientTransform="translate(16.4807 14.752) scale(0.358502)">
<stop stop-color="#AEE6F9" stop-opacity="0.8588"/>
<stop offset="1" stop-color="#C8D6DC"/>
</radialGradient>
<linearGradient id="paint4_linear_1_7684" x1="13.4151" y1="3.19997" x2="13.4151" y2="16" gradientUnits="userSpaceOnUse">
<stop stop-color="#77D4FF"/>
<stop offset="1" stop-color="#93D6F2" stop-opacity="0.898"/>
</linearGradient>
<linearGradient id="paint5_linear_1_7684" x1="19.5592" y1="3.19997" x2="19.5592" y2="16" gradientUnits="userSpaceOnUse">
<stop stop-color="#506AAC"/>
<stop offset="1" stop-color="#96CFEF" stop-opacity="0.8196"/>
</linearGradient>
<clipPath id="clip0_1_7684">
<rect width="32" height="32" fill="white" transform="translate(0.5)"/>
</clipPath>
</defs>
</svg>
