<svg viewBox="0 0 640 640" xmlns="http://www.w3.org/2000/svg">
    <path d="M640 320.3c0 176.9-143.4 320.3-320.3 320.3S-.5 497.1-.5 320.3 142.9 0 319.8 0 640 143.4 640 320.3Z"/>
    <path fill="#fff" d="M368.2 121.1c0 26.178-21.222 47.4-47.4 47.4-26.178 0-47.4-21.222-47.4-47.4 0-26.178 21.222-47.4 47.4-47.4 26.178 0 47.4 21.222 47.4 47.4Z"/>
    <path fill="#fff" d="M368.2 519.9c0 26.178-21.222 47.4-47.4 47.4-26.178 0-47.4-21.222-47.4-47.4 0-26.178 21.222-47.4 47.4-47.4 26.178 0 47.4 21.222 47.4 47.4Z"/>
    <path fill="#fff" d="M193.4 215.9c0 26.178-21.222 47.4-47.4 47.4-26.178 0-47.4-21.222-47.4-47.4 0-26.178 21.222-47.4 47.4-47.4 26.178 0 47.4 21.222 47.4 47.4Z"/>
    <path fill="#fff" d="M543.1 215.9c0 26.178-21.222 47.4-47.4 47.4-26.178 0-47.4-21.222-47.4-47.4 0-26.178 21.222-47.4 47.4-47.4 26.178 0 47.4 21.222 47.4 47.4Z"/>
    <path fill="#fff" d="M193.4 426.7c0 26.178-21.222 47.4-47.4 47.4-26.178 0-47.4-21.222-47.4-47.4 0-26.178 21.222-47.4 47.4-47.4 26.178 0 47.4 21.222 47.4 47.4Z"/>
    <path fill="#fff" d="M543.1 426.7c0 26.178-21.222 47.4-47.4 47.4-26.178 0-47.4-21.222-47.4-47.4 0-26.178 21.222-47.4 47.4-47.4 26.178 0 47.4 21.222 47.4 47.4Z"/>
    <path fill="#fff" d="M444.2 392.4h-67.6l-12.7-31h-85.8l-12.7 31h-67.6l80.9-184.3h84.5l81 184.3ZM321.1 256l-22.4 55h44.7l-22.3-55Z"/>
</svg>
