<?xml version="1.0" encoding="UTF-8"?>
<svg xmlns="http://www.w3.org/2000/svg" xmlns:xlink="http://www.w3.org/1999/xlink" width="32px" height="32px" viewBox="0 0 32 32" version="1.1">
<g id="surface1">
<path style=" stroke:none;fill-rule:evenodd;fill:rgb(52.941179%,86.274511%,99.215686%);fill-opacity:1;" d="M 14.921875 0.347656 C 15.121094 0.402344 15.398438 0.398438 15.539062 0.34375 C 15.679688 0.285156 15.515625 0.242188 15.175781 0.246094 C 14.832031 0.25 14.71875 0.296875 14.921875 0.347656 M 16.777344 0.347656 C 16.980469 0.402344 17.257812 0.398438 17.398438 0.34375 C 17.539062 0.285156 17.371094 0.242188 17.03125 0.246094 C 16.691406 0.25 16.578125 0.296875 16.777344 0.347656 M 13.28125 0.550781 C 13.355469 0.625 13.480469 0.625 13.558594 0.550781 C 13.632812 0.476562 13.570312 0.414062 13.417969 0.414062 C 13.269531 0.414062 13.207031 0.476562 13.28125 0.550781 M 18.542969 0.554688 C 18.691406 0.613281 18.867188 0.605469 18.9375 0.539062 C 19.007812 0.46875 18.882812 0.421875 18.667969 0.429688 C 18.425781 0.4375 18.378906 0.488281 18.542969 0.554688 M 12.25 0.757812 C 12.324219 0.832031 12.449219 0.832031 12.523438 0.757812 C 12.601562 0.679688 12.539062 0.621094 12.386719 0.621094 C 12.234375 0.621094 12.175781 0.679688 12.25 0.757812 M 19.574219 0.761719 C 19.722656 0.820312 19.902344 0.8125 19.96875 0.742188 C 20.039062 0.675781 19.917969 0.625 19.699219 0.636719 C 19.457031 0.644531 19.410156 0.695312 19.574219 0.761719 M 11.421875 0.964844 C 11.5 1.039062 11.625 1.039062 11.699219 0.964844 C 11.773438 0.886719 11.710938 0.824219 11.5625 0.824219 C 11.410156 0.824219 11.347656 0.886719 11.421875 0.964844 M 20.300781 0.964844 C 20.375 1.039062 20.5 1.039062 20.578125 0.964844 C 20.652344 0.886719 20.589844 0.824219 20.4375 0.824219 C 20.289062 0.824219 20.226562 0.886719 20.300781 0.964844 M 10.804688 1.171875 C 10.878906 1.246094 11.003906 1.246094 11.078125 1.171875 C 11.15625 1.09375 11.09375 1.03125 10.941406 1.03125 C 10.789062 1.03125 10.730469 1.09375 10.804688 1.171875 M 23.226562 2.066406 C 23.296875 2.179688 23.398438 2.269531 23.457031 2.269531 C 23.511719 2.269531 23.503906 2.179688 23.433594 2.066406 C 23.363281 1.949219 23.257812 1.859375 23.203125 1.859375 C 23.144531 1.859375 23.15625 1.949219 23.226562 2.066406 M 7.929688 2.507812 C 7.835938 2.65625 7.871094 2.691406 8.019531 2.601562 C 8.257812 2.453125 8.339844 2.269531 8.167969 2.269531 C 8.117188 2.269531 8.007812 2.378906 7.929688 2.507812 M 24.671875 2.890625 C 24.742188 3.003906 24.84375 3.097656 24.902344 3.097656 C 24.957031 3.097656 24.949219 3.003906 24.878906 2.890625 C 24.808594 2.777344 24.703125 2.683594 24.648438 2.683594 C 24.589844 2.683594 24.601562 2.777344 24.671875 2.890625 M 15.535156 3.039062 C 15.847656 3.085938 16.359375 3.085938 16.671875 3.039062 C 16.984375 2.992188 16.726562 2.953125 16.101562 2.953125 C 15.480469 2.953125 15.222656 2.992188 15.535156 3.039062 M 6.691406 3.335938 C 6.597656 3.484375 6.632812 3.515625 6.78125 3.425781 C 7.019531 3.277344 7.101562 3.097656 6.929688 3.097656 C 6.878906 3.097656 6.769531 3.203125 6.691406 3.335938 M 13.488281 3.234375 C 13.5625 3.308594 13.6875 3.308594 13.761719 3.234375 C 13.839844 3.160156 13.777344 3.097656 13.625 3.097656 C 13.472656 3.097656 13.414062 3.160156 13.488281 3.234375 M 18.238281 3.234375 C 18.3125 3.308594 18.4375 3.308594 18.511719 3.234375 C 18.585938 3.160156 18.527344 3.097656 18.375 3.097656 C 18.222656 3.097656 18.160156 3.160156 18.238281 3.234375 M 19.269531 3.441406 C 19.34375 3.515625 19.46875 3.515625 19.542969 3.441406 C 19.621094 3.363281 19.558594 3.304688 19.40625 3.304688 C 19.253906 3.304688 19.191406 3.363281 19.269531 3.441406 M 25.496094 3.507812 C 25.566406 3.625 25.671875 3.714844 25.726562 3.714844 C 25.785156 3.714844 25.773438 3.625 25.703125 3.507812 C 25.632812 3.394531 25.527344 3.304688 25.472656 3.304688 C 25.414062 3.304688 25.425781 3.394531 25.496094 3.507812 M 11.835938 3.648438 C 11.914062 3.722656 12.035156 3.722656 12.113281 3.648438 C 12.1875 3.570312 12.125 3.507812 11.972656 3.507812 C 11.824219 3.507812 11.761719 3.570312 11.835938 3.648438 M 5.558594 4.285156 L 5.058594 4.851562 L 5.625 4.351562 C 5.9375 4.074219 6.195312 3.820312 6.195312 3.785156 C 6.195312 3.621094 6.027344 3.753906 5.558594 4.285156 M 21.074219 3.996094 C 21.121094 4.039062 21.394531 4.183594 21.675781 4.320312 C 22.164062 4.550781 22.171875 4.546875 21.792969 4.242188 C 21.464844 3.980469 20.792969 3.75 21.074219 3.996094 M 27.148438 4.953125 C 27.59375 5.410156 28 5.78125 28.058594 5.78125 C 28.113281 5.78125 27.796875 5.410156 27.355469 4.953125 C 26.910156 4.5 26.503906 4.128906 26.445312 4.128906 C 26.386719 4.128906 26.703125 4.5 27.148438 4.953125 M 9.375 4.78125 C 9.28125 4.929688 9.316406 4.960938 9.464844 4.871094 C 9.703125 4.722656 9.785156 4.542969 9.613281 4.542969 C 9.5625 4.542969 9.453125 4.648438 9.375 4.78125 M 4.21875 5.625 L 3.613281 6.296875 L 4.285156 5.691406 C 4.910156 5.125 5.050781 4.953125 4.890625 4.953125 C 4.855469 4.953125 4.550781 5.257812 4.21875 5.625 M 23.226562 5.160156 C 23.296875 5.273438 23.398438 5.367188 23.457031 5.367188 C 23.511719 5.367188 23.503906 5.273438 23.433594 5.160156 C 23.363281 5.046875 23.257812 4.953125 23.203125 4.953125 C 23.144531 4.953125 23.15625 5.046875 23.226562 5.160156 M 8.136719 5.605469 C 8.042969 5.753906 8.078125 5.789062 8.226562 5.695312 C 8.464844 5.550781 8.546875 5.367188 8.375 5.367188 C 8.324219 5.367188 8.214844 5.476562 8.136719 5.605469 M 24.050781 5.78125 C 24.257812 6.007812 24.472656 6.195312 24.527344 6.195312 C 24.585938 6.195312 24.464844 6.007812 24.257812 5.78125 C 24.050781 5.554688 23.839844 5.367188 23.78125 5.367188 C 23.722656 5.367188 23.847656 5.554688 24.050781 5.78125 M 6.59375 6.96875 L 5.882812 7.742188 L 6.65625 7.03125 C 7.378906 6.367188 7.527344 6.195312 7.371094 6.195312 C 7.335938 6.195312 6.988281 6.542969 6.59375 6.96875 M 28.285156 6.273438 C 28.285156 6.3125 28.445312 6.476562 28.644531 6.632812 C 28.972656 6.890625 28.980469 6.882812 28.722656 6.554688 C 28.453125 6.210938 28.285156 6.101562 28.285156 6.273438 M 25.289062 6.8125 C 25.496094 7.039062 25.710938 7.226562 25.765625 7.226562 C 25.824219 7.226562 25.703125 7.039062 25.496094 6.8125 C 25.292969 6.585938 25.078125 6.398438 25.019531 6.398438 C 24.964844 6.398438 25.085938 6.585938 25.289062 6.8125 M 3.179688 6.84375 C 3.089844 6.992188 3.125 7.027344 3.269531 6.9375 C 3.402344 6.855469 3.507812 6.746094 3.507812 6.699219 C 3.507812 6.523438 3.328125 6.605469 3.179688 6.84375 M 29.007812 7.226562 C 29.078125 7.339844 29.179688 7.433594 29.238281 7.433594 C 29.292969 7.433594 29.28125 7.339844 29.214844 7.226562 C 29.144531 7.113281 29.039062 7.019531 28.980469 7.019531 C 28.925781 7.019531 28.9375 7.113281 29.007812 7.226562 M 26.011719 7.714844 C 26.011719 7.757812 26.175781 7.921875 26.375 8.078125 C 26.703125 8.335938 26.707031 8.328125 26.453125 8 C 26.183594 7.65625 26.011719 7.546875 26.011719 7.714844 M 29.417969 7.84375 C 29.488281 7.957031 29.59375 8.050781 29.648438 8.050781 C 29.707031 8.050781 29.695312 7.957031 29.625 7.84375 C 29.554688 7.730469 29.453125 7.640625 29.394531 7.640625 C 29.339844 7.640625 29.347656 7.730469 29.417969 7.84375 M 2.269531 8.257812 C 2.148438 8.484375 2.097656 8.671875 2.152344 8.671875 C 2.210938 8.671875 2.355469 8.484375 2.476562 8.257812 C 2.597656 8.03125 2.652344 7.84375 2.59375 7.84375 C 2.539062 7.84375 2.390625 8.03125 2.269531 8.257812 M 5.339844 8.414062 C 5.085938 8.742188 5.09375 8.746094 5.417969 8.492188 C 5.617188 8.335938 5.78125 8.171875 5.78125 8.128906 C 5.78125 7.960938 5.609375 8.070312 5.339844 8.414062 M 26.734375 8.671875 C 26.804688 8.785156 26.910156 8.878906 26.964844 8.878906 C 27.023438 8.878906 27.011719 8.785156 26.941406 8.671875 C 26.871094 8.558594 26.769531 8.464844 26.710938 8.464844 C 26.65625 8.464844 26.664062 8.558594 26.734375 8.671875 M 27.148438 9.289062 C 27.21875 9.402344 27.324219 9.496094 27.378906 9.496094 C 27.4375 9.496094 27.425781 9.402344 27.355469 9.289062 C 27.285156 9.175781 27.179688 9.082031 27.125 9.082031 C 27.066406 9.082031 27.078125 9.175781 27.148438 9.289062 M 4.625 9.527344 C 4.535156 9.675781 4.570312 9.710938 4.714844 9.621094 C 4.847656 9.539062 4.953125 9.429688 4.953125 9.382812 C 4.953125 9.210938 4.773438 9.289062 4.625 9.527344 M 10.871094 9.691406 C 9.773438 9.84375 9.289062 10.289062 8.921875 11.492188 L 8.710938 12.179688 L 14.453125 12.179688 L 14.472656 12.75 C 14.484375 13.0625 14.554688 15.609375 14.628906 18.414062 L 14.761719 23.507812 L 15.363281 24.140625 C 16.054688 24.859375 16.941406 25.085938 18.273438 24.886719 C 19.324219 24.730469 19.4375 24.535156 18.671875 24.1875 C 17.789062 23.785156 17.613281 22.9375 17.453125 18.382812 C 17.304688 13.980469 17.160156 13.285156 16.304688 12.746094 C 15.546875 12.273438 15.890625 12.179688 18.394531 12.179688 C 21.699219 12.179688 22.609375 11.765625 23.027344 10.066406 L 23.167969 9.496094 L 17.519531 9.523438 C 14.414062 9.539062 11.421875 9.613281 10.871094 9.691406 M 1.445312 9.910156 C 1.445312 10.0625 1.507812 10.121094 1.582031 10.046875 C 1.660156 9.972656 1.660156 9.847656 1.582031 9.773438 C 1.507812 9.695312 1.445312 9.757812 1.445312 9.910156 M 3.921875 10.941406 C 3.921875 11.09375 3.984375 11.15625 4.058594 11.078125 C 4.136719 11.003906 4.136719 10.878906 4.058594 10.804688 C 3.984375 10.730469 3.921875 10.789062 3.921875 10.941406 M 31.175781 11.972656 C 31.175781 12.125 31.234375 12.1875 31.3125 12.113281 C 31.386719 12.035156 31.386719 11.914062 31.3125 11.835938 C 31.234375 11.761719 31.175781 11.824219 31.175781 11.972656 M 0.621094 12.386719 C 0.621094 12.539062 0.679688 12.601562 0.757812 12.523438 C 0.832031 12.449219 0.832031 12.324219 0.757812 12.25 C 0.679688 12.175781 0.621094 12.234375 0.621094 12.386719 M 3.304688 12.800781 C 3.304688 12.953125 3.363281 13.011719 3.441406 12.9375 C 3.515625 12.863281 3.515625 12.738281 3.441406 12.664062 C 3.363281 12.585938 3.304688 12.648438 3.304688 12.800781 M 31.378906 12.800781 C 31.378906 12.953125 31.441406 13.011719 31.519531 12.9375 C 31.59375 12.863281 31.59375 12.738281 31.519531 12.664062 C 31.441406 12.585938 31.378906 12.648438 31.378906 12.800781 M 28.695312 13.007812 C 28.695312 13.15625 28.757812 13.21875 28.835938 13.144531 C 28.910156 13.070312 28.910156 12.945312 28.835938 12.867188 C 28.757812 12.792969 28.695312 12.855469 28.695312 13.007812 M 0.429688 13.539062 C 0.4375 13.78125 0.488281 13.828125 0.554688 13.664062 C 0.613281 13.515625 0.605469 13.335938 0.539062 13.269531 C 0.46875 13.199219 0.421875 13.320312 0.429688 13.539062 M 3.113281 13.746094 C 3.121094 13.988281 3.171875 14.035156 3.238281 13.871094 C 3.296875 13.722656 3.289062 13.542969 3.222656 13.476562 C 3.152344 13.40625 3.105469 13.527344 3.113281 13.746094 M 31.601562 13.953125 C 31.613281 14.191406 31.664062 14.242188 31.726562 14.078125 C 31.789062 13.929688 31.78125 13.75 31.710938 13.683594 C 31.644531 13.613281 31.59375 13.734375 31.601562 13.953125 M 28.902344 14.246094 C 28.902344 14.398438 28.964844 14.457031 29.039062 14.382812 C 29.117188 14.308594 29.117188 14.183594 29.039062 14.109375 C 28.964844 14.03125 28.902344 14.09375 28.902344 14.246094 M 0.273438 16.101562 C 0.273438 16.839844 0.308594 17.144531 0.355469 16.773438 C 0.402344 16.40625 0.402344 15.800781 0.355469 15.433594 C 0.308594 15.0625 0.273438 15.363281 0.273438 16.101562 M 2.945312 16.101562 C 2.945312 16.613281 2.988281 16.824219 3.035156 16.566406 C 3.085938 16.3125 3.085938 15.894531 3.035156 15.640625 C 2.988281 15.382812 2.945312 15.59375 2.945312 16.101562 M 28.917969 17.875 C 28.929688 18.117188 28.976562 18.164062 29.042969 18 C 29.105469 17.851562 29.097656 17.671875 29.027344 17.605469 C 28.960938 17.535156 28.910156 17.65625 28.917969 17.875 M 31.601562 18.289062 C 31.613281 18.527344 31.664062 18.578125 31.726562 18.414062 C 31.789062 18.265625 31.78125 18.085938 31.710938 18.015625 C 31.644531 17.949219 31.59375 18.070312 31.601562 18.289062 M 3.097656 18.375 C 3.097656 18.527344 3.160156 18.585938 3.234375 18.511719 C 3.308594 18.4375 3.308594 18.3125 3.234375 18.238281 C 3.160156 18.160156 3.097656 18.222656 3.097656 18.375 M 0.429688 18.699219 C 0.4375 18.941406 0.488281 18.992188 0.554688 18.824219 C 0.613281 18.675781 0.605469 18.5 0.539062 18.429688 C 0.46875 18.363281 0.421875 18.484375 0.429688 18.699219 M 28.695312 18.992188 C 28.695312 19.144531 28.757812 19.207031 28.835938 19.132812 C 28.910156 19.054688 28.910156 18.929688 28.835938 18.855469 C 28.757812 18.78125 28.695312 18.84375 28.695312 18.992188 M 31.378906 19.40625 C 31.378906 19.558594 31.441406 19.621094 31.519531 19.542969 C 31.59375 19.46875 31.59375 19.34375 31.519531 19.269531 C 31.441406 19.191406 31.378906 19.253906 31.378906 19.40625 M 0.621094 19.613281 C 0.621094 19.765625 0.679688 19.824219 0.757812 19.75 C 0.832031 19.675781 0.832031 19.550781 0.757812 19.476562 C 0.679688 19.398438 0.621094 19.460938 0.621094 19.613281 M 28.492188 19.820312 C 28.492188 19.96875 28.550781 20.03125 28.628906 19.957031 C 28.703125 19.882812 28.703125 19.757812 28.628906 19.683594 C 28.550781 19.605469 28.492188 19.667969 28.492188 19.820312 M 3.507812 20.027344 C 3.507812 20.175781 3.570312 20.238281 3.648438 20.164062 C 3.722656 20.085938 3.722656 19.964844 3.648438 19.886719 C 3.570312 19.8125 3.507812 19.875 3.507812 20.027344 M 31.175781 20.230469 C 31.175781 20.382812 31.234375 20.445312 31.3125 20.371094 C 31.386719 20.292969 31.386719 20.171875 31.3125 20.09375 C 31.234375 20.019531 31.175781 20.082031 31.175781 20.230469 M 0.824219 20.4375 C 0.824219 20.589844 0.886719 20.652344 0.964844 20.578125 C 1.039062 20.5 1.039062 20.375 0.964844 20.300781 C 0.886719 20.226562 0.824219 20.289062 0.824219 20.4375 M 5.265625 23.535156 C 5.335938 23.648438 5.4375 23.742188 5.496094 23.742188 C 5.550781 23.742188 5.542969 23.648438 5.472656 23.535156 C 5.402344 23.421875 5.296875 23.328125 5.238281 23.328125 C 5.183594 23.328125 5.195312 23.421875 5.265625 23.535156 M 24.167969 23.988281 C 20.664062 25.8125 22.21875 30.941406 26.140625 30.5 C 29.226562 30.152344 30.230469 25.929688 27.636719 24.214844 C 26.511719 23.46875 25.308594 23.390625 24.167969 23.988281 M 6.089844 24.566406 C 6.296875 24.792969 6.511719 24.980469 6.566406 24.980469 C 6.625 24.980469 6.503906 24.792969 6.296875 24.566406 C 6.089844 24.339844 5.875 24.15625 5.820312 24.15625 C 5.761719 24.15625 5.886719 24.339844 6.089844 24.566406 M 29.191406 24.601562 C 29.101562 24.746094 29.136719 24.78125 29.285156 24.691406 C 29.523438 24.542969 29.605469 24.359375 29.429688 24.359375 C 29.382812 24.359375 29.273438 24.46875 29.191406 24.601562 M 3.40625 25.601562 C 3.476562 25.714844 3.582031 25.804688 3.636719 25.804688 C 3.695312 25.804688 3.683594 25.714844 3.613281 25.601562 C 3.542969 25.488281 3.4375 25.394531 3.382812 25.394531 C 3.324219 25.394531 3.335938 25.488281 3.40625 25.601562 M 7.226562 25.679688 C 7.226562 25.722656 7.386719 25.882812 7.585938 26.039062 C 7.914062 26.296875 7.921875 26.289062 7.664062 25.960938 C 7.394531 25.617188 7.226562 25.507812 7.226562 25.679688 M 24.359375 25.960938 C 24.359375 27.980469 25.972656 29.183594 26.578125 27.621094 C 26.8125 27.019531 27.070312 26.367188 27.152344 26.167969 C 27.261719 25.890625 27.191406 25.804688 26.859375 25.804688 C 26.621094 25.804688 26.425781 25.886719 26.425781 25.988281 C 26.425781 26.085938 26.277344 26.527344 26.09375 26.96875 L 25.757812 27.765625 L 25.414062 26.839844 C 25.117188 26.035156 24.359375 25.40625 24.359375 25.960938 M 4.851562 27.25 C 5.296875 27.707031 5.703125 28.078125 5.761719 28.078125 C 5.816406 28.078125 5.5 27.707031 5.058594 27.25 C 4.613281 26.796875 4.207031 26.425781 4.148438 26.425781 C 4.089844 26.425781 4.40625 26.796875 4.851562 27.25 M 6.503906 28.695312 C 6.574219 28.808594 6.675781 28.902344 6.734375 28.902344 C 6.789062 28.902344 6.78125 28.808594 6.710938 28.695312 C 6.640625 28.582031 6.535156 28.492188 6.480469 28.492188 C 6.421875 28.492188 6.433594 28.582031 6.503906 28.695312 M 13.074219 28.835938 C 13.152344 28.910156 13.273438 28.910156 13.351562 28.835938 C 13.425781 28.757812 13.363281 28.695312 13.214844 28.695312 C 13.0625 28.695312 13 28.757812 13.074219 28.835938 M 14.414062 29.042969 C 14.5625 29.105469 14.738281 29.097656 14.808594 29.027344 C 14.878906 28.960938 14.753906 28.910156 14.539062 28.917969 C 14.296875 28.929688 14.25 28.976562 14.414062 29.042969 M 17.511719 29.042969 C 17.660156 29.105469 17.835938 29.097656 17.90625 29.027344 C 17.972656 28.960938 17.851562 28.910156 17.632812 28.917969 C 17.394531 28.929688 17.34375 28.976562 17.511719 29.042969 M 22.476562 30.007812 C 22.601562 30.160156 22.636719 30.359375 22.554688 30.453125 C 22.46875 30.546875 22.519531 30.550781 22.667969 30.464844 C 22.921875 30.320312 22.664062 29.730469 22.347656 29.730469 C 22.292969 29.730469 22.351562 29.855469 22.476562 30.007812 M 20.09375 31.3125 C 20.171875 31.386719 20.292969 31.386719 20.371094 31.3125 C 20.445312 31.234375 20.382812 31.175781 20.230469 31.175781 C 20.082031 31.175781 20.019531 31.234375 20.09375 31.3125 M 12.664062 31.519531 C 12.738281 31.59375 12.863281 31.59375 12.9375 31.519531 C 13.011719 31.441406 12.953125 31.378906 12.800781 31.378906 C 12.648438 31.378906 12.585938 31.441406 12.664062 31.519531 M 19.269531 31.519531 C 19.34375 31.59375 19.46875 31.59375 19.542969 31.519531 C 19.621094 31.441406 19.558594 31.378906 19.40625 31.378906 C 19.253906 31.378906 19.191406 31.441406 19.269531 31.519531 M 13.792969 31.726562 C 13.941406 31.789062 14.121094 31.78125 14.1875 31.710938 C 14.257812 31.644531 14.136719 31.59375 13.917969 31.601562 C 13.679688 31.613281 13.628906 31.664062 13.792969 31.726562 M 18.03125 31.726562 C 18.105469 31.800781 18.230469 31.800781 18.304688 31.726562 C 18.382812 31.648438 18.320312 31.585938 18.167969 31.585938 C 18.015625 31.585938 17.953125 31.648438 18.03125 31.726562 "/>
<path style=" stroke:none;fill-rule:evenodd;fill:rgb(52.941179%,86.274511%,99.215686%);fill-opacity:1;" d="M 14.921875 0.347656 C 15.121094 0.402344 15.398438 0.398438 15.539062 0.34375 C 15.679688 0.285156 15.515625 0.242188 15.175781 0.246094 C 14.832031 0.25 14.71875 0.296875 14.921875 0.347656 M 16.777344 0.347656 C 16.980469 0.402344 17.257812 0.398438 17.398438 0.34375 C 17.539062 0.285156 17.371094 0.242188 17.03125 0.246094 C 16.691406 0.25 16.578125 0.296875 16.777344 0.347656 M 13.28125 0.550781 C 13.355469 0.625 13.480469 0.625 13.558594 0.550781 C 13.632812 0.476562 13.570312 0.414062 13.417969 0.414062 C 13.269531 0.414062 13.207031 0.476562 13.28125 0.550781 M 18.542969 0.554688 C 18.691406 0.613281 18.867188 0.605469 18.9375 0.539062 C 19.007812 0.46875 18.882812 0.421875 18.667969 0.429688 C 18.425781 0.4375 18.378906 0.488281 18.542969 0.554688 M 12.25 0.757812 C 12.324219 0.832031 12.449219 0.832031 12.523438 0.757812 C 12.601562 0.679688 12.539062 0.621094 12.386719 0.621094 C 12.234375 0.621094 12.175781 0.679688 12.25 0.757812 M 19.574219 0.761719 C 19.722656 0.820312 19.902344 0.8125 19.96875 0.742188 C 20.039062 0.675781 19.917969 0.625 19.699219 0.636719 C 19.457031 0.644531 19.410156 0.695312 19.574219 0.761719 M 11.421875 0.964844 C 11.5 1.039062 11.625 1.039062 11.699219 0.964844 C 11.773438 0.886719 11.710938 0.824219 11.5625 0.824219 C 11.410156 0.824219 11.347656 0.886719 11.421875 0.964844 M 20.300781 0.964844 C 20.375 1.039062 20.5 1.039062 20.578125 0.964844 C 20.652344 0.886719 20.589844 0.824219 20.4375 0.824219 C 20.289062 0.824219 20.226562 0.886719 20.300781 0.964844 M 10.804688 1.171875 C 10.878906 1.246094 11.003906 1.246094 11.078125 1.171875 C 11.15625 1.09375 11.09375 1.03125 10.941406 1.03125 C 10.789062 1.03125 10.730469 1.09375 10.804688 1.171875 M 23.226562 2.066406 C 23.296875 2.179688 23.398438 2.269531 23.457031 2.269531 C 23.511719 2.269531 23.503906 2.179688 23.433594 2.066406 C 23.363281 1.949219 23.257812 1.859375 23.203125 1.859375 C 23.144531 1.859375 23.15625 1.949219 23.226562 2.066406 M 7.929688 2.507812 C 7.835938 2.65625 7.871094 2.691406 8.019531 2.601562 C 8.257812 2.453125 8.339844 2.269531 8.167969 2.269531 C 8.117188 2.269531 8.007812 2.378906 7.929688 2.507812 M 24.671875 2.890625 C 24.742188 3.003906 24.84375 3.097656 24.902344 3.097656 C 24.957031 3.097656 24.949219 3.003906 24.878906 2.890625 C 24.808594 2.777344 24.703125 2.683594 24.648438 2.683594 C 24.589844 2.683594 24.601562 2.777344 24.671875 2.890625 M 15.535156 3.039062 C 15.847656 3.085938 16.359375 3.085938 16.671875 3.039062 C 16.984375 2.992188 16.726562 2.953125 16.101562 2.953125 C 15.480469 2.953125 15.222656 2.992188 15.535156 3.039062 M 6.691406 3.335938 C 6.597656 3.484375 6.632812 3.515625 6.78125 3.425781 C 7.019531 3.277344 7.101562 3.097656 6.929688 3.097656 C 6.878906 3.097656 6.769531 3.203125 6.691406 3.335938 M 13.488281 3.234375 C 13.5625 3.308594 13.6875 3.308594 13.761719 3.234375 C 13.839844 3.160156 13.777344 3.097656 13.625 3.097656 C 13.472656 3.097656 13.414062 3.160156 13.488281 3.234375 M 18.238281 3.234375 C 18.3125 3.308594 18.4375 3.308594 18.511719 3.234375 C 18.585938 3.160156 18.527344 3.097656 18.375 3.097656 C 18.222656 3.097656 18.160156 3.160156 18.238281 3.234375 M 19.269531 3.441406 C 19.34375 3.515625 19.46875 3.515625 19.542969 3.441406 C 19.621094 3.363281 19.558594 3.304688 19.40625 3.304688 C 19.253906 3.304688 19.191406 3.363281 19.269531 3.441406 M 25.496094 3.507812 C 25.566406 3.625 25.671875 3.714844 25.726562 3.714844 C 25.785156 3.714844 25.773438 3.625 25.703125 3.507812 C 25.632812 3.394531 25.527344 3.304688 25.472656 3.304688 C 25.414062 3.304688 25.425781 3.394531 25.496094 3.507812 M 11.835938 3.648438 C 11.914062 3.722656 12.035156 3.722656 12.113281 3.648438 C 12.1875 3.570312 12.125 3.507812 11.972656 3.507812 C 11.824219 3.507812 11.761719 3.570312 11.835938 3.648438 M 5.558594 4.285156 L 5.058594 4.851562 L 5.625 4.351562 C 5.9375 4.074219 6.195312 3.820312 6.195312 3.785156 C 6.195312 3.621094 6.027344 3.753906 5.558594 4.285156 M 21.074219 3.996094 C 21.121094 4.039062 21.394531 4.183594 21.675781 4.320312 C 22.164062 4.550781 22.171875 4.546875 21.792969 4.242188 C 21.464844 3.980469 20.792969 3.75 21.074219 3.996094 M 27.148438 4.953125 C 27.59375 5.410156 28 5.78125 28.058594 5.78125 C 28.113281 5.78125 27.796875 5.410156 27.355469 4.953125 C 26.910156 4.5 26.503906 4.128906 26.445312 4.128906 C 26.386719 4.128906 26.703125 4.5 27.148438 4.953125 M 9.375 4.78125 C 9.28125 4.929688 9.316406 4.960938 9.464844 4.871094 C 9.703125 4.722656 9.785156 4.542969 9.613281 4.542969 C 9.5625 4.542969 9.453125 4.648438 9.375 4.78125 M 4.21875 5.625 L 3.613281 6.296875 L 4.285156 5.691406 C 4.910156 5.125 5.050781 4.953125 4.890625 4.953125 C 4.855469 4.953125 4.550781 5.257812 4.21875 5.625 M 23.226562 5.160156 C 23.296875 5.273438 23.398438 5.367188 23.457031 5.367188 C 23.511719 5.367188 23.503906 5.273438 23.433594 5.160156 C 23.363281 5.046875 23.257812 4.953125 23.203125 4.953125 C 23.144531 4.953125 23.15625 5.046875 23.226562 5.160156 M 8.136719 5.605469 C 8.042969 5.753906 8.078125 5.789062 8.226562 5.695312 C 8.464844 5.550781 8.546875 5.367188 8.375 5.367188 C 8.324219 5.367188 8.214844 5.476562 8.136719 5.605469 M 24.050781 5.78125 C 24.257812 6.007812 24.472656 6.195312 24.527344 6.195312 C 24.585938 6.195312 24.464844 6.007812 24.257812 5.78125 C 24.050781 5.554688 23.839844 5.367188 23.78125 5.367188 C 23.722656 5.367188 23.847656 5.554688 24.050781 5.78125 M 6.59375 6.96875 L 5.882812 7.742188 L 6.65625 7.03125 C 7.378906 6.367188 7.527344 6.195312 7.371094 6.195312 C 7.335938 6.195312 6.988281 6.542969 6.59375 6.96875 M 28.285156 6.273438 C 28.285156 6.3125 28.445312 6.476562 28.644531 6.632812 C 28.972656 6.890625 28.980469 6.882812 28.722656 6.554688 C 28.453125 6.210938 28.285156 6.101562 28.285156 6.273438 M 25.289062 6.8125 C 25.496094 7.039062 25.710938 7.226562 25.765625 7.226562 C 25.824219 7.226562 25.703125 7.039062 25.496094 6.8125 C 25.292969 6.585938 25.078125 6.398438 25.019531 6.398438 C 24.964844 6.398438 25.085938 6.585938 25.289062 6.8125 M 3.179688 6.84375 C 3.089844 6.992188 3.125 7.027344 3.269531 6.9375 C 3.402344 6.855469 3.507812 6.746094 3.507812 6.699219 C 3.507812 6.523438 3.328125 6.605469 3.179688 6.84375 M 29.007812 7.226562 C 29.078125 7.339844 29.179688 7.433594 29.238281 7.433594 C 29.292969 7.433594 29.28125 7.339844 29.214844 7.226562 C 29.144531 7.113281 29.039062 7.019531 28.980469 7.019531 C 28.925781 7.019531 28.9375 7.113281 29.007812 7.226562 M 26.011719 7.714844 C 26.011719 7.757812 26.175781 7.921875 26.375 8.078125 C 26.703125 8.335938 26.707031 8.328125 26.453125 8 C 26.183594 7.65625 26.011719 7.546875 26.011719 7.714844 M 29.417969 7.84375 C 29.488281 7.957031 29.59375 8.050781 29.648438 8.050781 C 29.707031 8.050781 29.695312 7.957031 29.625 7.84375 C 29.554688 7.730469 29.453125 7.640625 29.394531 7.640625 C 29.339844 7.640625 29.347656 7.730469 29.417969 7.84375 M 2.269531 8.257812 C 2.148438 8.484375 2.097656 8.671875 2.152344 8.671875 C 2.210938 8.671875 2.355469 8.484375 2.476562 8.257812 C 2.597656 8.03125 2.652344 7.84375 2.59375 7.84375 C 2.539062 7.84375 2.390625 8.03125 2.269531 8.257812 M 5.339844 8.414062 C 5.085938 8.742188 5.09375 8.746094 5.417969 8.492188 C 5.617188 8.335938 5.78125 8.171875 5.78125 8.128906 C 5.78125 7.960938 5.609375 8.070312 5.339844 8.414062 M 26.734375 8.671875 C 26.804688 8.785156 26.910156 8.878906 26.964844 8.878906 C 27.023438 8.878906 27.011719 8.785156 26.941406 8.671875 C 26.871094 8.558594 26.769531 8.464844 26.710938 8.464844 C 26.65625 8.464844 26.664062 8.558594 26.734375 8.671875 M 27.148438 9.289062 C 27.21875 9.402344 27.324219 9.496094 27.378906 9.496094 C 27.4375 9.496094 27.425781 9.402344 27.355469 9.289062 C 27.285156 9.175781 27.179688 9.082031 27.125 9.082031 C 27.066406 9.082031 27.078125 9.175781 27.148438 9.289062 M 4.625 9.527344 C 4.535156 9.675781 4.570312 9.710938 4.714844 9.621094 C 4.847656 9.539062 4.953125 9.429688 4.953125 9.382812 C 4.953125 9.210938 4.773438 9.289062 4.625 9.527344 M 10.871094 9.691406 C 9.773438 9.84375 9.289062 10.289062 8.921875 11.492188 L 8.710938 12.179688 L 14.453125 12.179688 L 14.472656 12.75 C 14.484375 13.0625 14.554688 15.609375 14.628906 18.414062 L 14.761719 23.507812 L 15.363281 24.140625 C 16.054688 24.859375 16.941406 25.085938 18.273438 24.886719 C 19.324219 24.730469 19.4375 24.535156 18.671875 24.1875 C 17.789062 23.785156 17.613281 22.9375 17.453125 18.382812 C 17.304688 13.980469 17.160156 13.285156 16.304688 12.746094 C 15.546875 12.273438 15.890625 12.179688 18.394531 12.179688 C 21.699219 12.179688 22.609375 11.765625 23.027344 10.066406 L 23.167969 9.496094 L 17.519531 9.523438 C 14.414062 9.539062 11.421875 9.613281 10.871094 9.691406 M 1.445312 9.910156 C 1.445312 10.0625 1.507812 10.121094 1.582031 10.046875 C 1.660156 9.972656 1.660156 9.847656 1.582031 9.773438 C 1.507812 9.695312 1.445312 9.757812 1.445312 9.910156 M 3.921875 10.941406 C 3.921875 11.09375 3.984375 11.15625 4.058594 11.078125 C 4.136719 11.003906 4.136719 10.878906 4.058594 10.804688 C 3.984375 10.730469 3.921875 10.789062 3.921875 10.941406 M 31.175781 11.972656 C 31.175781 12.125 31.234375 12.1875 31.3125 12.113281 C 31.386719 12.035156 31.386719 11.914062 31.3125 11.835938 C 31.234375 11.761719 31.175781 11.824219 31.175781 11.972656 M 0.621094 12.386719 C 0.621094 12.539062 0.679688 12.601562 0.757812 12.523438 C 0.832031 12.449219 0.832031 12.324219 0.757812 12.25 C 0.679688 12.175781 0.621094 12.234375 0.621094 12.386719 M 3.304688 12.800781 C 3.304688 12.953125 3.363281 13.011719 3.441406 12.9375 C 3.515625 12.863281 3.515625 12.738281 3.441406 12.664062 C 3.363281 12.585938 3.304688 12.648438 3.304688 12.800781 M 31.378906 12.800781 C 31.378906 12.953125 31.441406 13.011719 31.519531 12.9375 C 31.59375 12.863281 31.59375 12.738281 31.519531 12.664062 C 31.441406 12.585938 31.378906 12.648438 31.378906 12.800781 M 28.695312 13.007812 C 28.695312 13.15625 28.757812 13.21875 28.835938 13.144531 C 28.910156 13.070312 28.910156 12.945312 28.835938 12.867188 C 28.757812 12.792969 28.695312 12.855469 28.695312 13.007812 M 0.429688 13.539062 C 0.4375 13.78125 0.488281 13.828125 0.554688 13.664062 C 0.613281 13.515625 0.605469 13.335938 0.539062 13.269531 C 0.46875 13.199219 0.421875 13.320312 0.429688 13.539062 M 3.113281 13.746094 C 3.121094 13.988281 3.171875 14.035156 3.238281 13.871094 C 3.296875 13.722656 3.289062 13.542969 3.222656 13.476562 C 3.152344 13.40625 3.105469 13.527344 3.113281 13.746094 M 31.601562 13.953125 C 31.613281 14.191406 31.664062 14.242188 31.726562 14.078125 C 31.789062 13.929688 31.78125 13.75 31.710938 13.683594 C 31.644531 13.613281 31.59375 13.734375 31.601562 13.953125 M 28.902344 14.246094 C 28.902344 14.398438 28.964844 14.457031 29.039062 14.382812 C 29.117188 14.308594 29.117188 14.183594 29.039062 14.109375 C 28.964844 14.03125 28.902344 14.09375 28.902344 14.246094 M 0.273438 16.101562 C 0.273438 16.839844 0.308594 17.144531 0.355469 16.773438 C 0.402344 16.40625 0.402344 15.800781 0.355469 15.433594 C 0.308594 15.0625 0.273438 15.363281 0.273438 16.101562 M 2.945312 16.101562 C 2.945312 16.613281 2.988281 16.824219 3.035156 16.566406 C 3.085938 16.3125 3.085938 15.894531 3.035156 15.640625 C 2.988281 15.382812 2.945312 15.59375 2.945312 16.101562 M 28.917969 17.875 C 28.929688 18.117188 28.976562 18.164062 29.042969 18 C 29.105469 17.851562 29.097656 17.671875 29.027344 17.605469 C 28.960938 17.535156 28.910156 17.65625 28.917969 17.875 M 31.601562 18.289062 C 31.613281 18.527344 31.664062 18.578125 31.726562 18.414062 C 31.789062 18.265625 31.78125 18.085938 31.710938 18.015625 C 31.644531 17.949219 31.59375 18.070312 31.601562 18.289062 M 3.097656 18.375 C 3.097656 18.527344 3.160156 18.585938 3.234375 18.511719 C 3.308594 18.4375 3.308594 18.3125 3.234375 18.238281 C 3.160156 18.160156 3.097656 18.222656 3.097656 18.375 M 0.429688 18.699219 C 0.4375 18.941406 0.488281 18.992188 0.554688 18.824219 C 0.613281 18.675781 0.605469 18.5 0.539062 18.429688 C 0.46875 18.363281 0.421875 18.484375 0.429688 18.699219 M 28.695312 18.992188 C 28.695312 19.144531 28.757812 19.207031 28.835938 19.132812 C 28.910156 19.054688 28.910156 18.929688 28.835938 18.855469 C 28.757812 18.78125 28.695312 18.84375 28.695312 18.992188 M 31.378906 19.40625 C 31.378906 19.558594 31.441406 19.621094 31.519531 19.542969 C 31.59375 19.46875 31.59375 19.34375 31.519531 19.269531 C 31.441406 19.191406 31.378906 19.253906 31.378906 19.40625 M 0.621094 19.613281 C 0.621094 19.765625 0.679688 19.824219 0.757812 19.75 C 0.832031 19.675781 0.832031 19.550781 0.757812 19.476562 C 0.679688 19.398438 0.621094 19.460938 0.621094 19.613281 M 28.492188 19.820312 C 28.492188 19.96875 28.550781 20.03125 28.628906 19.957031 C 28.703125 19.882812 28.703125 19.757812 28.628906 19.683594 C 28.550781 19.605469 28.492188 19.667969 28.492188 19.820312 M 3.507812 20.027344 C 3.507812 20.175781 3.570312 20.238281 3.648438 20.164062 C 3.722656 20.085938 3.722656 19.964844 3.648438 19.886719 C 3.570312 19.8125 3.507812 19.875 3.507812 20.027344 M 31.175781 20.230469 C 31.175781 20.382812 31.234375 20.445312 31.3125 20.371094 C 31.386719 20.292969 31.386719 20.171875 31.3125 20.09375 C 31.234375 20.019531 31.175781 20.082031 31.175781 20.230469 M 0.824219 20.4375 C 0.824219 20.589844 0.886719 20.652344 0.964844 20.578125 C 1.039062 20.5 1.039062 20.375 0.964844 20.300781 C 0.886719 20.226562 0.824219 20.289062 0.824219 20.4375 M 5.265625 23.535156 C 5.335938 23.648438 5.4375 23.742188 5.496094 23.742188 C 5.550781 23.742188 5.542969 23.648438 5.472656 23.535156 C 5.402344 23.421875 5.296875 23.328125 5.238281 23.328125 C 5.183594 23.328125 5.195312 23.421875 5.265625 23.535156 M 24.167969 23.988281 C 20.664062 25.8125 22.21875 30.941406 26.140625 30.5 C 29.226562 30.152344 30.230469 25.929688 27.636719 24.214844 C 26.511719 23.46875 25.308594 23.390625 24.167969 23.988281 M 6.089844 24.566406 C 6.296875 24.792969 6.511719 24.980469 6.566406 24.980469 C 6.625 24.980469 6.503906 24.792969 6.296875 24.566406 C 6.089844 24.339844 5.875 24.15625 5.820312 24.15625 C 5.761719 24.15625 5.886719 24.339844 6.089844 24.566406 M 29.191406 24.601562 C 29.101562 24.746094 29.136719 24.78125 29.285156 24.691406 C 29.523438 24.542969 29.605469 24.359375 29.429688 24.359375 C 29.382812 24.359375 29.273438 24.46875 29.191406 24.601562 M 3.40625 25.601562 C 3.476562 25.714844 3.582031 25.804688 3.636719 25.804688 C 3.695312 25.804688 3.683594 25.714844 3.613281 25.601562 C 3.542969 25.488281 3.4375 25.394531 3.382812 25.394531 C 3.324219 25.394531 3.335938 25.488281 3.40625 25.601562 M 7.226562 25.679688 C 7.226562 25.722656 7.386719 25.882812 7.585938 26.039062 C 7.914062 26.296875 7.921875 26.289062 7.664062 25.960938 C 7.394531 25.617188 7.226562 25.507812 7.226562 25.679688 M 24.359375 25.960938 C 24.359375 27.980469 25.972656 29.183594 26.578125 27.621094 C 26.8125 27.019531 27.070312 26.367188 27.152344 26.167969 C 27.261719 25.890625 27.191406 25.804688 26.859375 25.804688 C 26.621094 25.804688 26.425781 25.886719 26.425781 25.988281 C 26.425781 26.085938 26.277344 26.527344 26.09375 26.96875 L 25.757812 27.765625 L 25.414062 26.839844 C 25.117188 26.035156 24.359375 25.40625 24.359375 25.960938 M 4.851562 27.25 C 5.296875 27.707031 5.703125 28.078125 5.761719 28.078125 C 5.816406 28.078125 5.5 27.707031 5.058594 27.25 C 4.613281 26.796875 4.207031 26.425781 4.148438 26.425781 C 4.089844 26.425781 4.40625 26.796875 4.851562 27.25 M 6.503906 28.695312 C 6.574219 28.808594 6.675781 28.902344 6.734375 28.902344 C 6.789062 28.902344 6.78125 28.808594 6.710938 28.695312 C 6.640625 28.582031 6.535156 28.492188 6.480469 28.492188 C 6.421875 28.492188 6.433594 28.582031 6.503906 28.695312 M 13.074219 28.835938 C 13.152344 28.910156 13.273438 28.910156 13.351562 28.835938 C 13.425781 28.757812 13.363281 28.695312 13.214844 28.695312 C 13.0625 28.695312 13 28.757812 13.074219 28.835938 M 14.414062 29.042969 C 14.5625 29.105469 14.738281 29.097656 14.808594 29.027344 C 14.878906 28.960938 14.753906 28.910156 14.539062 28.917969 C 14.296875 28.929688 14.25 28.976562 14.414062 29.042969 M 17.511719 29.042969 C 17.660156 29.105469 17.835938 29.097656 17.90625 29.027344 C 17.972656 28.960938 17.851562 28.910156 17.632812 28.917969 C 17.394531 28.929688 17.34375 28.976562 17.511719 29.042969 M 22.476562 30.007812 C 22.601562 30.160156 22.636719 30.359375 22.554688 30.453125 C 22.46875 30.546875 22.519531 30.550781 22.667969 30.464844 C 22.921875 30.320312 22.664062 29.730469 22.347656 29.730469 C 22.292969 29.730469 22.351562 29.855469 22.476562 30.007812 M 20.09375 31.3125 C 20.171875 31.386719 20.292969 31.386719 20.371094 31.3125 C 20.445312 31.234375 20.382812 31.175781 20.230469 31.175781 C 20.082031 31.175781 20.019531 31.234375 20.09375 31.3125 M 12.664062 31.519531 C 12.738281 31.59375 12.863281 31.59375 12.9375 31.519531 C 13.011719 31.441406 12.953125 31.378906 12.800781 31.378906 C 12.648438 31.378906 12.585938 31.441406 12.664062 31.519531 M 19.269531 31.519531 C 19.34375 31.59375 19.46875 31.59375 19.542969 31.519531 C 19.621094 31.441406 19.558594 31.378906 19.40625 31.378906 C 19.253906 31.378906 19.191406 31.441406 19.269531 31.519531 M 13.792969 31.726562 C 13.941406 31.789062 14.121094 31.78125 14.1875 31.710938 C 14.257812 31.644531 14.136719 31.59375 13.917969 31.601562 C 13.679688 31.613281 13.628906 31.664062 13.792969 31.726562 M 18.03125 31.726562 C 18.105469 31.800781 18.230469 31.800781 18.304688 31.726562 C 18.382812 31.648438 18.320312 31.585938 18.167969 31.585938 C 18.015625 31.585938 17.953125 31.648438 18.03125 31.726562 "/>
<path style=" stroke:none;fill-rule:evenodd;fill:rgb(47.058824%,90.980393%,100%);fill-opacity:1;" d="M 14.386719 0.425781 C 10.027344 0.929688 6.191406 3.152344 3.328125 6.832031 L 2.910156 7.367188 L 3.46875 7.316406 C 3.773438 7.289062 4.070312 7.246094 4.128906 7.222656 C 4.1875 7.195312 4.300781 7.1875 4.386719 7.203125 C 4.472656 7.214844 4.542969 7.113281 4.542969 6.976562 C 4.542969 6.792969 4.601562 6.789062 4.773438 6.964844 C 4.929688 7.117188 5.171875 7.132812 5.496094 7.007812 C 5.847656 6.875 5.988281 6.894531 5.988281 7.074219 C 5.992188 7.238281 6.066406 7.21875 6.195312 7.019531 C 6.304688 6.847656 6.394531 6.785156 6.398438 6.875 C 6.398438 6.964844 6.980469 6.566406 7.691406 5.984375 C 12.703125 1.894531 19.472656 1.960938 24.695312 6.144531 C 25.46875 6.765625 26.132812 7.167969 26.175781 7.042969 C 26.3125 6.636719 27.046875 6.765625 26.917969 7.175781 C 26.8125 7.519531 26.820312 7.519531 27.039062 7.175781 C 27.277344 6.800781 27.789062 6.652344 27.5625 7.019531 C 27.492188 7.132812 27.527344 7.226562 27.640625 7.226562 C 27.753906 7.226562 27.902344 7.140625 27.964844 7.03125 C 28.03125 6.925781 28.273438 6.875 28.503906 6.917969 C 29.550781 7.121094 26.164062 3.773438 24.089844 2.558594 C 21.179688 0.855469 17.554688 0.0546875 14.386719 0.425781 M 3.425781 6.984375 C 3.371094 7.078125 3.453125 7.15625 3.613281 7.15625 C 3.773438 7.15625 3.855469 7.078125 3.796875 6.984375 C 3.738281 6.890625 3.65625 6.8125 3.613281 6.8125 C 3.570312 6.8125 3.484375 6.890625 3.425781 6.984375 "/>
<path style=" stroke:none;fill-rule:evenodd;fill:rgb(57.647061%,92.941177%,100%);fill-opacity:1;" d="M 3.148438 7.277344 C 0.796875 9.789062 -0.683594 18.480469 1.433594 17.347656 C 1.648438 17.234375 2.058594 17.222656 2.398438 17.320312 L 2.992188 17.488281 L 3.019531 15.710938 C 3.0625 12.785156 4.117188 9.785156 5.78125 7.84375 C 6.121094 7.449219 6.398438 7.03125 6.394531 6.917969 C 6.394531 6.800781 6.304688 6.847656 6.195312 7.019531 C 6.066406 7.21875 5.992188 7.238281 5.988281 7.074219 C 5.988281 6.894531 5.847656 6.875 5.496094 7.007812 C 5.171875 7.132812 4.929688 7.117188 4.773438 6.964844 C 4.601562 6.789062 4.542969 6.792969 4.542969 6.976562 C 4.542969 7.113281 4.472656 7.214844 4.386719 7.203125 C 4.300781 7.1875 4.1875 7.195312 4.128906 7.21875 C 3.734375 7.371094 3.320312 7.363281 3.417969 7.203125 C 3.484375 7.097656 3.640625 7.074219 3.761719 7.152344 C 3.894531 7.234375 3.925781 7.195312 3.839844 7.050781 C 3.644531 6.738281 3.652344 6.738281 3.148438 7.277344 M 26.21875 7.03125 C 26.21875 7.152344 26.105469 7.179688 25.960938 7.09375 C 25.820312 7.003906 25.867188 7.160156 26.070312 7.441406 C 28.304688 10.535156 28.925781 12.175781 29.066406 15.328125 C 29.136719 16.976562 29.523438 18.683594 29.523438 17.355469 C 29.523438 17.199219 30 17.203125 31.132812 17.371094 C 31.820312 17.46875 31.855469 17.351562 31.71875 15.433594 C 31.394531 10.921875 29.125 5.902344 27.945312 7.082031 C 27.726562 7.304688 27.417969 7.253906 27.5625 7.019531 C 27.789062 6.652344 27.277344 6.800781 27.039062 7.175781 C 26.820312 7.519531 26.8125 7.519531 26.917969 7.175781 C 27 6.914062 26.917969 6.8125 26.625 6.8125 C 26.402344 6.8125 26.21875 6.910156 26.21875 7.03125 M 0.414062 17.960938 C 0.414062 18.113281 0.476562 18.175781 0.550781 18.097656 C 0.625 18.023438 0.625 17.898438 0.550781 17.824219 C 0.476562 17.746094 0.414062 17.808594 0.414062 17.960938 "/>
<path style=" stroke:none;fill-rule:evenodd;fill:rgb(66.274512%,94.117647%,100%);fill-opacity:1;" d="M 1.445312 17.347656 C 1.273438 17.453125 0.976562 17.488281 0.785156 17.429688 C 0.488281 17.335938 0.453125 17.4375 0.546875 18.105469 C 1.683594 26.097656 8.046875 31.683594 16 31.667969 C 19.554688 31.660156 23.105469 30.730469 22.445312 29.976562 C 22.277344 29.78125 21.976562 29.300781 21.777344 28.902344 C 21.582031 28.503906 21.398438 28.15625 21.375 28.128906 C 21.351562 28.101562 20.78125 28.269531 20.109375 28.507812 C 13.160156 30.960938 4.710938 26.125 3.242188 18.851562 C 3.097656 18.148438 2.9375 17.535156 2.886719 17.484375 C 2.628906 17.261719 1.71875 17.171875 1.445312 17.347656 M 29.402344 17.425781 C 29.277344 17.558594 29.007812 18.347656 28.804688 19.179688 C 28.601562 20.011719 28.160156 21.207031 27.824219 21.832031 C 27.242188 22.925781 27.261719 23.3125 27.90625 23.324219 C 27.984375 23.328125 28.324219 23.609375 28.664062 23.949219 L 29.285156 24.570312 L 29.898438 23.484375 C 31.027344 21.5 32 17.425781 31.351562 17.398438 C 31.199219 17.390625 30.746094 17.339844 30.347656 17.28125 C 29.929688 17.222656 29.53125 17.285156 29.402344 17.425781 "/>
<path style=" stroke:none;fill-rule:evenodd;fill:rgb(56.078434%,89.019608%,96.470588%);fill-opacity:1;" d="M 31.601562 14.570312 C 31.613281 14.8125 31.664062 14.863281 31.726562 14.695312 C 31.789062 14.546875 31.78125 14.371094 31.710938 14.300781 C 31.644531 14.234375 31.59375 14.355469 31.601562 14.570312 M 31.601562 17.667969 C 31.613281 17.910156 31.664062 17.957031 31.726562 17.792969 C 31.789062 17.644531 31.78125 17.464844 31.710938 17.398438 C 31.644531 17.328125 31.59375 17.449219 31.601562 17.667969 M 28.59375 23.949219 C 28.664062 24.0625 28.769531 24.15625 28.824219 24.15625 C 28.882812 24.15625 28.871094 24.0625 28.800781 23.949219 C 28.730469 23.835938 28.625 23.742188 28.570312 23.742188 C 28.511719 23.742188 28.523438 23.835938 28.59375 23.949219 M 17.617188 31.726562 C 17.691406 31.800781 17.816406 31.800781 17.890625 31.726562 C 17.96875 31.648438 17.90625 31.585938 17.753906 31.585938 C 17.601562 31.585938 17.542969 31.648438 17.617188 31.726562 "/>
</g>
</svg>
