<?xml version="1.0" standalone="no"?>
<!DOCTYPE svg PUBLIC "-//W3C//DTD SVG 20010904//EN"
 "http://www.w3.org/TR/2001/REC-SVG-20010904/DTD/svg10.dtd">
<svg version="1.0" xmlns="http://www.w3.org/2000/svg"
 width="512.000000pt" height="512.000000pt" viewBox="0 0 512.000000 512.000000"
 preserveAspectRatio="xMidYMid meet">
<metadata>
Created by potrace 1.14, written by Peter Selinger 2001-2017
</metadata>
<g transform="translate(0.000000,512.000000) scale(0.100000,-0.100000)"
fill="#000000" stroke="none">
<path d="M4860 5096 c0 -2 7 -7 16 -10 8 -3 12 -2 9 4 -6 10 -25 14 -25 6z"/>
<path d="M140 5030 c-9 -6 -10 -10 -3 -10 6 0 15 5 18 10 8 12 4 12 -15 0z"/>
<path d="M5005 5000 c21 -22 41 -40 44 -40 3 0 -13 18 -34 40 -21 22 -41 40
-44 40 -3 0 13 -18 34 -40z"/>
<path d="M980 4651 l0 -379 139 -77 140 -78 76 -177 76 -176 72 -40 c40 -21
78 -40 85 -42 6 -2 12 -9 12 -15 0 -7 18 -37 40 -67 25 -33 36 -58 30 -64 -5
-5 -48 -12 -96 -15 l-87 -6 99 -94 98 -94 -44 7 c-75 11 -139 36 -186 72 -24
19 -44 31 -44 28 0 -3 -11 8 -25 23 -58 66 -5 -54 76 -172 26 -38 66 -92 88
-120 23 -27 41 -54 40 -60 0 -5 -291 -181 -646 -390 -355 -209 -655 -387 -665
-395 -18 -14 -11 -20 111 -90 72 -41 131 -79 131 -83 0 -5 -3 -6 -7 -4 -113
65 -262 147 -267 147 -7 0 -8 -807 0 -835 3 -14 115 -83 352 -219 191 -110
649 -374 1017 -586 369 -213 731 -421 805 -462 l135 -76 5 426 5 427 3 -402
c1 -261 6 -403 12 -403 6 0 11 141 12 398 l3 397 5 -422 5 -421 240 137 c132
76 382 219 555 318 173 99 586 336 918 528 l602 348 0 424 c0 232 -2 423 -5
423 -3 0 -24 -9 -45 -20 -22 -11 -40 -17 -40 -12 0 5 16 16 35 25 19 9 35 20
35 25 0 5 -82 58 -182 119 -101 60 -334 202 -518 313 -184 112 -383 232 -442
267 l-107 64 14 46 c8 26 12 50 9 54 -2 4 0 10 5 13 8 5 24 68 26 101 0 6 4
16 9 23 4 7 5 16 2 19 -3 3 -2 11 3 17 5 6 14 36 20 66 6 30 13 66 16 80 3 14
8 36 10 50 3 14 9 45 14 70 13 64 -11 102 -118 183 -34 25 -35 28 -37 100 -3
91 -9 130 -27 182 -18 49 -61 128 -90 163 -51 60 -151 152 -165 152 -5 0 -17
9 -27 20 -10 11 -24 20 -32 20 -7 0 -13 5 -13 12 0 6 -3 8 -6 5 -4 -4 -20 3
-37 15 -27 19 -30 20 -24 4 5 -12 3 -16 -5 -13 -7 2 -12 10 -11 18 3 14 -150
77 -200 83 -12 2 -38 6 -57 9 -108 20 -281 11 -459 -23 -131 -25 -279 -22
-342 6 -94 44 -144 118 -178 264 l-17 74 -16 -34 c-23 -49 -49 -213 -50 -317
-1 -101 14 -165 47 -209 l24 -31 -23 -23 -24 -22 -58 29 c-75 36 -143 99 -177
161 -28 51 -78 175 -81 202 -1 8 -6 31 -10 51 -4 19 -9 62 -11 95 -2 32 -4 65
-4 72 -2 28 -18 9 -29 -35 -23 -97 -33 -177 -32 -261 1 -48 1 -91 1 -97 -1 -5
-41 82 -89 195 l-88 205 -144 82 c-80 46 -151 83 -157 83 -10 0 -13 -82 -13
-379z"/>
<path d="M79 4963 c-13 -16 -12 -17 4 -4 9 7 17 15 17 17 0 8 -8 3 -21 -13z"/>
<path d="M5096 4867 c3 -10 9 -15 12 -12 3 3 0 11 -7 18 -10 9 -11 8 -5 -6z"/>
<path d="M1 4804 c0 -11 3 -14 6 -6 3 7 2 16 -1 19 -3 4 -6 -2 -5 -13z"/>
<path d="M5096 243 c-6 -14 -5 -15 5 -6 7 7 10 15 7 18 -3 3 -9 -2 -12 -12z"/>
<path d="M70 156 c0 -2 8 -10 18 -17 15 -13 16 -12 3 4 -13 16 -21 21 -21 13z"/>
<path d="M5004 108 l-29 -33 33 29 c17 17 32 31 32 33 0 8 -8 1 -36 -29z"/>
<path d="M130 96 c0 -2 8 -10 18 -17 15 -13 16 -12 3 4 -13 16 -21 21 -21 13z"/>
<path d="M4890 30 c-9 -6 -10 -10 -3 -10 6 0 15 5 18 10 8 12 4 12 -15 0z"/>
<path d="M240 20 c8 -5 20 -10 25 -10 6 0 3 5 -5 10 -8 5 -19 10 -25 10 -5 0
-3 -5 5 -10z"/>
</g>
</svg>
